<svg width="36" height="36" viewBox="0 0 36 36" fill="none" xmlns="http://www.w3.org/2000/svg">
<path fill="#52709C" d="M0 8.47c0,-3.993 0,-5.989 1.24,-7.23 1.241,-1.24 3.237,-1.24 7.23,-1.24l19.06 0c3.993,0 5.989,0 7.23,1.24 1.24,1.241 1.24,3.237 1.24,7.23l0 19.06c0,3.993 0,5.989 -1.24,7.23 -1.241,1.24 -3.237,1.24 -7.23,1.24l-19.06 0c-3.993,0 -5.989,0 -7.23,-1.24 -1.24,-1.241 -1.24,-3.237 -1.24,-7.23l0 -19.06z"/>
<path fill="white" d="M25.715 11.831l0.244 8.269 2.101 0 0.238 -8.269 -2.583 0 0 0zm1.294 12.355c0.712,0 1.289,-0.577 1.289,-1.289 0,-0.711 -0.577,-1.289 -1.289,-1.289 0,0 -0.001,0 -0.001,0 -0.712,0 -1.29,0.578 -1.29,1.289 0,0.712 0.578,1.289 1.291,1.289 0,0 0,0 0,0zm2.413 -12.355l0.238 8.269 2.102 0 0.238 -8.269 -2.578 0 -0.001 0 0.001 0zm1.29 12.355c0.713,0 1.289,-0.577 1.289,-1.289 0,-0.711 -0.577,-1.289 -1.289,-1.289 0,0 -0.002,0 -0.002,0 -0.711,0 -1.288,0.578 -1.288,1.289 0,0.712 0.577,1.289 1.288,1.289 0,0 0.002,0 0.002,0l0 0zm-8.155 -6.438l-3.583 0 0 2.363 2.918 0c-0.914,1.274 -2.641,1.921 -4.424,1.188 -0.797,-0.33 -1.435,-0.961 -1.771,-1.756 -1.09,-2.62 0.801,-5.132 3.277,-5.132 0.114,0 0.227,0.005 0.341,0.017 0.023,0 0.045,0.005 0.068,0.005 0.023,0 0.039,0.007 0.062,0.007 0.023,0.005 0.046,0.005 0.068,0.01 0.023,0.005 0.04,0.005 0.063,0.012 0.023,0.005 0.045,0.005 0.069,0.012 0.021,0.004 0.038,0.004 0.055,0.01 0.024,0.006 0.046,0.011 0.068,0.011 0.018,0.008 0.037,0.01 0.058,0.013 0.021,0.005 0.045,0.011 0.062,0.016 0.016,0.007 0.038,0.012 0.056,0.017 0.024,0.007 0.04,0.012 0.062,0.017 0.017,0.006 0.04,0.012 0.057,0.017 0.022,0.006 0.043,0.014 0.063,0.023l0.057 0.017c0.022,0.006 0.038,0.017 0.061,0.023 0.017,0.005 0.04,0.017 0.057,0.023 0.023,0.005 0.04,0.017 0.062,0.023 0.017,0.006 0.04,0.017 0.057,0.022 0.017,0.012 0.039,0.019 0.056,0.03 0.017,0.005 0.035,0.017 0.059,0.022 0.016,0.011 0.038,0.017 0.056,0.028 0.017,0.012 0.034,0.018 0.05,0.029 0.019,0.011 0.038,0.021 0.058,0.028 0.017,0.011 0.034,0.017 0.051,0.028 0.016,0.012 0.039,0.023 0.056,0.035 0.017,0.011 0.035,0.023 0.052,0.028 0.186,0.114 0.358,0.245 0.522,0.393l1.823 -1.825c-0.227,-0.214 -0.471,-0.413 -0.727,-0.592 -0.01,-0.01 -0.029,-0.016 -0.046,-0.028 -0.039,-0.029 -0.081,-0.056 -0.125,-0.08 -0.023,-0.017 -0.045,-0.028 -0.073,-0.045 -0.04,-0.029 -0.085,-0.051 -0.125,-0.079 -0.023,-0.013 -0.045,-0.029 -0.073,-0.039 -0.047,-0.024 -0.087,-0.052 -0.131,-0.076l-0.069 -0.033c-0.045,-0.023 -0.09,-0.052 -0.136,-0.074 -0.023,-0.011 -0.039,-0.023 -0.063,-0.029 -0.05,-0.022 -0.102,-0.045 -0.147,-0.068 -0.13,-0.056 -0.25,-0.108 -0.368,-0.154 -0.017,-0.005 -0.04,-0.017 -0.057,-0.022 -0.04,-0.017 -0.085,-0.028 -0.131,-0.047l-0.102 -0.033 -0.12 -0.035 -0.113 -0.034c-0.038,-0.011 -0.079,-0.023 -0.119,-0.028 -0.039,-0.012 -0.08,-0.023 -0.119,-0.028 -0.04,-0.011 -0.08,-0.017 -0.113,-0.023 -0.04,-0.011 -0.085,-0.017 -0.125,-0.023 -0.038,-0.005 -0.078,-0.013 -0.114,-0.024 -0.046,-0.004 -0.086,-0.016 -0.13,-0.022 -0.041,-0.006 -0.075,-0.011 -0.114,-0.017 -0.045,-0.005 -0.091,-0.011 -0.13,-0.017 -0.04,-0.006 -0.075,-0.006 -0.114,-0.012 -0.046,-0.005 -0.091,-0.005 -0.138,-0.011 -0.021,0 -0.045,-0.006 -0.068,-0.006 -0.13,-0.005 -0.238,-0.01 -0.345,-0.01 -4.146,0 -7.343,4.092 -5.764,8.467 0.595,1.661 1.931,2.95 3.595,3.524 3.555,1.217 6.899,-0.71 7.978,-3.717 0.227,-0.63 0.182,-0.903 0.193,-1.607l0 -0.733 -2.413 0 0 0 0 0.001zm-10.647 0.477l-3.794 0 0 1.875 2.011 0c0,0.057 -0.006,0.108 -0.012,0.165 -0.006,0.065 -0.016,0.13 -0.029,0.193 0,0.012 -0.005,0.029 -0.005,0.04 0,0.006 -0.005,0.017 -0.005,0.023l-0.017 0.067c0,0.012 -0.005,0.022 -0.011,0.029l-0.017 0.062c-0.006,0.012 -0.006,0.023 -0.012,0.029 -0.006,0.016 -0.012,0.039 -0.023,0.056 -0.005,0.012 -0.005,0.017 -0.011,0.029 -0.006,0.016 -0.017,0.039 -0.023,0.056 -0.005,0.012 -0.005,0.017 -0.011,0.029 -0.011,0.022 -0.023,0.046 -0.029,0.063 -0.005,0.005 -0.005,0.01 -0.005,0.017 -0.039,0.083 -0.09,0.165 -0.142,0.243l0 0.007c-0.017,0.022 -0.033,0.05 -0.05,0.073l-0.007 0.007c-0.016,0.023 -0.035,0.047 -0.056,0.068l-0.007 0.005c-0.016,0.023 -0.038,0.045 -0.061,0.069 -0.38,0.411 -0.916,0.647 -1.477,0.647 -1.112,-0.005 -2.011,-0.906 -2.016,-2.017l0 -2.501c0.006,-1.114 0.911,-2.013 2.024,-2.013 0.091,0 0.182,0.005 0.271,0.018 0.011,0 0.022,0.005 0.034,0.005 0.023,0.007 0.039,0.007 0.062,0.012 0.007,0 0.011,0 0.017,0.005 0.352,0.068 0.671,0.233 0.937,0.46 0.034,0.035 0.068,0.062 0.103,0.097l0.033 0.034c0.097,0.103 0.187,0.216 0.262,0.336l0.26 -0.262 1.029 -1.029 0.205 -0.204c-0.059,-0.084 -0.124,-0.164 -0.194,-0.239 -0.023,-0.022 -0.039,-0.046 -0.062,-0.068l-0.035 -0.034 -0.101 -0.102c-0.014,-0.015 -0.029,-0.028 -0.047,-0.04 -0.028,-0.022 -0.05,-0.045 -0.078,-0.074 -0.022,-0.021 -0.044,-0.04 -0.069,-0.057 -0.028,-0.023 -0.057,-0.046 -0.08,-0.068l-0.073 -0.057c-0.027,-0.023 -0.055,-0.043 -0.085,-0.062 -0.024,-0.017 -0.052,-0.035 -0.075,-0.051l-0.005 -0.005c-0.045,-0.034 -0.093,-0.065 -0.142,-0.092l-0.005 -0.005c-0.028,-0.017 -0.063,-0.04 -0.092,-0.057 -0.028,-0.016 -0.056,-0.028 -0.084,-0.046 -0.029,-0.017 -0.062,-0.034 -0.091,-0.051 -0.029,-0.016 -0.057,-0.028 -0.085,-0.045 -0.035,-0.017 -0.063,-0.028 -0.096,-0.045 -0.029,-0.012 -0.057,-0.029 -0.085,-0.04 -0.035,-0.012 -0.062,-0.028 -0.097,-0.04 -0.03,-0.012 -0.061,-0.024 -0.092,-0.035l-0.102 -0.033c-0.029,-0.012 -0.06,-0.022 -0.09,-0.029 -0.035,-0.011 -0.068,-0.023 -0.108,-0.033 -0.028,-0.012 -0.062,-0.017 -0.092,-0.023 -0.033,-0.012 -0.073,-0.017 -0.106,-0.029 -0.029,-0.005 -0.064,-0.011 -0.092,-0.023 -0.04,-0.005 -0.08,-0.017 -0.113,-0.023l-0.086 -0.017 -0.125 -0.017c-0.028,-0.005 -0.057,-0.005 -0.084,-0.011 -0.047,-0.006 -0.092,-0.006 -0.143,-0.011 -0.023,0 -0.046,-0.006 -0.067,-0.006 -0.097,0 -0.165,-0.006 -0.239,-0.006 -2.267,0.001 -4.118,1.86 -4.118,4.122l0 2.5c0,2.268 1.852,4.12 4.118,4.12l0.323 0c2.091,0 3.794,-1.711 3.794,-3.797l0 -2.164 -0.324 0 -0.001 0z"/>
</svg>
