<svg width="36" height="36" viewBox="0 0 36 36" fill="none" xmlns="http://www.w3.org/2000/svg">
<path fill="black" d="M0 8.47c0,-3.993 0,-5.989 1.24,-7.23 1.241,-1.24 3.237,-1.24 7.23,-1.24l19.06 0c3.993,0 5.989,0 7.23,1.24 1.24,1.241 1.24,3.237 1.24,7.23l0 19.06c0,3.993 0,5.989 -1.24,7.23 -1.241,1.24 -3.237,1.24 -7.23,1.24l-19.06 0c-3.993,0 -5.989,0 -7.23,-1.24 -1.24,-1.241 -1.24,-3.237 -1.24,-7.23l0 -19.06z"/>
<polygon fill="white" points="27.045,7.001 27.045,29.001 22.447,29.001 22.447,10.782 13.552,10.782 13.552,29 8.954,29 8.955,7 "/>
</svg>
