<svg width="36" height="36" viewBox="0 0 36 36" fill="none" xmlns="http://www.w3.org/2000/svg">
<g clip-path="url(#clip)">
<rect fill="#100943" width="36" height="36"/>
<path fill="#ED143B" d="M36 18c9.942,0 18.001,-8.059 18.001,-18 0,-9.942 -8.059,-18.001 -18.001,-18.001 -9.941,0 -18,8.059 -18,18.001 0,9.941 8.059,18 18,18z"/>
<path fill="white" d="M22.237 17.178l-10.636 0 0 -4.209 10.636 0c0.621,0 1.053,0.108 1.27,0.298 0.217,0.189 0.351,0.54 0.351,1.052l0 1.511c0,0.54 -0.134,0.891 -0.351,1.08 -0.217,0.189 -0.649,0.27 -1.27,0.27l0 -0.002zm0.73 -8.176l-15.876 0 0 17.998 4.51 0 0 -5.855 8.313 0 3.944 5.855 5.051 0 -4.349 -5.883c1.604,-0.238 2.324,-0.729 2.917,-1.539 0.594,-0.81 0.892,-2.104 0.892,-3.832l0 -1.349c0,-1.025 -0.109,-1.835 -0.298,-2.456 -0.189,-0.62 -0.512,-1.16 -0.972,-1.645 -0.485,-0.459 -1.026,-0.782 -1.675,-0.999 -0.648,-0.189 -1.459,-0.297 -2.457,-0.297l0 0.002z"/>
</g>
<defs>
<clipPath id="clip">
<rect fill="white" width="36" height="36" rx="8.73"/>
</clipPath>
</defs>
</svg>
