<svg width="36" height="36" viewBox="0 0 36 36" fill="none" xmlns="http://www.w3.org/2000/svg">
<path fill="black" d="M0 8.47c0,-3.993 0,-5.989 1.24,-7.23 1.241,-1.24 3.237,-1.24 7.23,-1.24l19.06 0c3.993,0 5.989,0 7.23,1.24 1.24,1.241 1.24,3.237 1.24,7.23l0 19.06c0,3.993 0,5.989 -1.24,7.23 -1.241,1.24 -3.237,1.24 -7.23,1.24l-19.06 0c-3.993,0 -5.989,0 -7.23,-1.24 -1.24,-1.241 -1.24,-3.237 -1.24,-7.23l0 -19.06z"/>
<path fill="#00F2EA" d="M23.548 14.385c1.679,1.201 3.735,1.906 5.956,1.906l0 -4.273c-0.42,0 -0.84,-0.043 -1.25,-0.13l-1.263 1.92c-2.221,0 -2.69,-0.093 -4.694,-0.463l-1.154 8.683c0,4.362 -2.24,6.887 -6.602,6.887 -1.629,0 -2.854,0.177 -4.543,-0.29 1.435,1.467 3.435,2.376 5.649,2.376 4.363,0 7.901,-3.535 7.901,-7.897l0 -8.719 0 0zm1.543 -4.309c-0.858,-0.938 -1.421,-2.148 -1.543,-3.487l0 -0.549 -1.186 0c-0.682,2.584 0.373,4.004 2.728,4.036l0 0 0.001 0zm-12.334 15.202c-0.479,-0.628 -0.737,-1.396 -0.736,-2.187 0,-1.994 1.617,-3.612 3.614,-3.612 0.372,0 0.741,0.057 1.097,0.169l0 -4.367c-0.415,-0.057 -0.833,-0.081 -1.251,-0.072l-0.685 2.607c-0.356,-0.113 -0.725,-0.171 -1.097,-0.169 -1.996,0 -3.578,2.41 -3.578,4.404 0,1.412 1.097,3.246 2.637,3.228l-0.001 -0.001z"/>
<path fill="#FF004F" d="M28.254 11.888l0 -0.911c-1.118,0.003 -2.214,-0.31 -3.163,-0.902 0.378,1.568 1.447,2.251 3.163,1.812l0 0.001zm-5.891 -5.848c-0.029,-0.163 -0.051,-0.326 -0.066,-0.491l0 -0.549 -4.299 0 0 17.064c-0.008,1.989 -1.622,3.599 -3.615,3.599 -0.585,0 -1.137,-0.138 -1.626,-0.385 0.228,1.227 1.379,1.967 2.553,1.967 1.991,0 4.545,-1.755 4.551,-3.745l0.794 -15.693 1.708 -1.767zm-6.883 9.168l0 -0.967c-0.359,-0.049 -0.721,-0.074 -1.083,-0.074 -4.364,0 -7.901,3.535 -7.901,7.897 0,2.733 1.39,5.144 3.502,6.56 -0.707,-2.253 -0.882,-3.372 -0.882,-5.52 0,-4.306 2.185,-6.906 6.364,-7.896l0 0z"/>
<path fill="white" d="M22.296 13.345c1.68,1.199 3.736,1.906 5.958,1.906l0 -3.363c-1.241,-0.265 -2.338,-0.911 -3.164,-1.812 -1.413,-0.881 -2.43,-2.335 -2.728,-4.036l-3.115 0 0 17.064c-0.006,1.989 -1.622,3.6 -3.613,3.6 -1.174,0 -2.217,-0.559 -2.877,-1.426 -1.18,-0.595 -1.988,-1.816 -1.988,-3.227 0,-1.995 1.618,-3.612 3.614,-3.612 0.383,0 0.751,0.06 1.097,0.169l0 -3.4c-4.287,0.089 -7.734,3.591 -7.734,7.896 0,2.149 0.858,4.097 2.252,5.521 1.257,0.844 2.77,1.336 4.399,1.336 4.362,0 7.899,-3.537 7.899,-7.897l0 -8.719 0 0z"/>
</svg>
