<svg width="36" height="36" viewBox="0 0 36 36" fill="none" xmlns="http://www.w3.org/2000/svg">
<path fill="#9146FF" d="M0 8.47c0,-3.993 0,-5.989 1.24,-7.23 1.241,-1.24 3.237,-1.24 7.23,-1.24l19.06 0c3.993,0 5.989,0 7.23,1.24 1.24,1.241 1.24,3.237 1.24,7.23l0 19.06c0,3.993 0,5.989 -1.24,7.23 -1.241,1.24 -3.237,1.24 -7.23,1.24l-19.06 0c-3.993,0 -5.989,0 -7.23,-1.24 -1.24,-1.241 -1.24,-3.237 -1.24,-7.23l0 -19.06z"/>
<path fill="white" d="M11.583 5.167l-4.583 4.583 0 16.5 5.5 0 0 4.583 4.584 -4.583 3.667 0 8.25 -8.25 0 -12.833 -17.417 0 -0.001 0zm15.584 11.917l-3.667 3.667 -3.667 0 -3.209 3.207 0 -3.207 -4.124 0 0 -13.751 14.667 0 0 10.084 0 0zm-4.583 -1.376l0 -5.5 1.833 0 0 5.5 -1.833 0zm-5.043 0l0 -5.5 1.834 0 0 5.5 -1.834 0z"/>
</svg>
