<svg width="36" height="36" viewBox="0 0 36 36" fill="none" xmlns="http://www.w3.org/2000/svg">
<path fill="#0077FF" d="M0 17.28c0,-8.145 0,-12.219 2.53,-14.75 2.531,-2.53 6.605,-2.53 14.75,-2.53l1.44 0c8.145,0 12.219,0 14.75,2.53 2.53,2.531 2.53,6.605 2.53,14.75l0 1.44c0,8.145 0,12.219 -2.53,14.75 -2.531,2.53 -6.605,2.53 -14.75,2.53l-1.44 0c-8.145,0 -12.219,0 -14.75,-2.53 -2.53,-2.531 -2.53,-6.605 -2.53,-14.75l0 -1.44z"/>
<path fill="white" d="M19.155 25.935c-8.205,0 -12.885,-5.625 -13.081,-14.985l4.111 0c0.135,6.87 3.164,9.78 5.565,10.38l0 -10.38 3.87 0 0 5.926c2.371,-0.256 4.861,-2.956 5.7,-5.926l3.871 0c-0.645,3.66 -3.345,6.36 -5.265,7.47 1.92,0.9 4.996,3.255 6.165,7.515l-4.26 0c-0.915,-2.85 -3.196,-5.055 -6.21,-5.355l0 5.355 -0.465 0 -0.001 0z"/>
</svg>
