<svg width="34" height="34" viewBox="0 0 34 34" fill="none" xmlns="http://www.w3.org/2000/svg">
<path d="M0 8C0 4.22876 0 2.34315 1.17157 1.17157C2.34315 0 4.22876 0 8 0H26C29.7712 0 31.6569 0 32.8284 1.17157C34 2.34315 34 4.22876 34 8V26C34 29.7712 34 31.6569 32.8284 32.8284C31.6569 34 29.7712 34 26 34H8C4.22876 34 2.34315 34 1.17157 32.8284C0 31.6569 0 29.7712 0 26V8Z" fill="#5865F2"/>
<path fill-rule="evenodd" clip-rule="evenodd" d="M22.7123 26C22.7123 26 21.9726 25.0786 21.3562 24.2643C24.0479 23.4715 25.0753 21.7143 25.0753 21.7143C24.2329 22.2929 23.4315 22.7 22.7123 22.9786C21.6849 23.4286 20.6986 23.7286 19.7329 23.9C17.7603 24.2857 15.9521 24.1786 14.411 23.8786C13.2397 23.6429 12.2329 23.3 11.3904 22.9572C10.9178 22.7643 10.4041 22.5286 9.89041 22.2286C9.85959 22.2072 9.82877 22.1911 9.79795 22.175C9.76712 22.159 9.7363 22.1429 9.70548 22.1215C9.66438 22.1 9.64384 22.0786 9.62329 22.0572C9.25342 21.8429 9.04795 21.6929 9.04795 21.6929C9.04795 21.6929 10.0342 23.4072 12.6438 24.2214C12.0274 25.0357 11.2671 26 11.2671 26C6.72603 25.85 5 22.7429 5 22.7429C5 15.843 7.9589 10.2502 7.9589 10.2502C10.9178 7.93589 13.7329 8.00018 13.7329 8.00018L13.9384 8.25732C10.2397 9.37159 8.53425 11.0644 8.53425 11.0644C8.53425 11.0644 8.9863 10.8073 9.74658 10.443C11.9452 9.43588 13.6918 9.15731 14.411 9.09302C14.4266 9.0903 14.4419 9.08758 14.457 9.0849C14.5607 9.0665 14.6526 9.05017 14.7603 9.05017C16.0137 8.87874 17.4315 8.83589 18.911 9.00731C20.863 9.24302 22.9589 9.84302 25.0959 11.0644C25.0959 11.0644 23.4726 9.45731 19.9795 8.34303L20.2671 8.00018C20.2671 8.00018 23.0822 7.93589 26.0411 10.2502C26.0411 10.2502 29 15.843 29 22.7429C29 22.7429 27.2534 25.85 22.7123 26ZM11.062 18.3716C11.062 17.0645 11.9867 15.993 13.1579 15.993C14.3292 15.993 15.2744 17.0645 15.2538 18.3716C15.2538 19.6787 14.3292 20.7501 13.1579 20.7501C12.0072 20.7501 11.062 19.6787 11.062 18.3716ZM18.562 18.3716C18.562 17.0645 19.4867 15.993 20.6579 15.993C21.8292 15.993 22.7538 17.0645 22.7538 18.3716C22.7538 19.6787 21.8292 20.7501 20.6579 20.7501C19.5072 20.7501 18.562 19.6787 18.562 18.3716Z" fill="white"/>
</svg>
