<svg width="34" height="34" viewBox="0 0 34 34" fill="none" xmlns="http://www.w3.org/2000/svg">
<path d="M0 8C0 4.22876 0 2.34315 1.17157 1.17157C2.34315 0 4.22876 0 8 0H26C29.7712 0 31.6569 0 32.8284 1.17157C34 2.34315 34 4.22876 34 8V26C34 29.7712 34 31.6569 32.8284 32.8284C31.6569 34 29.7712 34 26 34H8C4.22876 34 2.34315 34 1.17157 32.8284C0 31.6569 0 29.7712 0 26V8Z" fill="#5865F2"/>
<path d="M8.66 9.343c-2.717,4.018 -4.057,8.547 -3.559,13.775 2.079,1.537 4.093,2.471 6.073,3.082 0.489,-0.667 0.925,-1.375 1.301,-2.122 -0.716,-0.269 -1.401,-0.601 -2.048,-0.987 0.171,-0.126 0.339,-0.258 0.502,-0.394 3.949,1.83 8.239,1.83 12.141,0 0.165,0.136 0.333,0.268 0.503,0.394 -0.65,0.388 -1.337,0.72 -2.052,0.989 0.375,0.745 0.809,1.455 1.3,2.122 1.982,-0.611 3.998,-1.545 6.077,-3.084 0.498,-5.228 -0.852,-9.76 -3.568,-13.779 -1.554,-0.72 -3.215,-1.243 -4.951,-1.541 -0.214,0.382 -0.463,0.896 -0.635,1.304 -1.846,-0.275 -3.675,-0.275 -5.487,0 -0.172,-0.408 -0.427,-0.922 -0.642,-1.304 -1.739,0.298 -3.402,0.823 -4.955,1.545zm4.353 11.001c-1.186,0 -2.158,-1.096 -2.158,-2.431 0,-1.335 0.952,-2.433 2.158,-2.433 1.206,0 2.178,1.096 2.157,2.433 0.002,1.335 -0.951,2.431 -2.157,2.431zm7.973 0c-1.185,0 -2.157,-1.096 -2.157,-2.431 0,-1.335 0.951,-2.433 2.157,-2.433 1.207,0 2.179,1.096 2.158,2.433 0,1.335 -0.951,2.431 -2.158,2.431z" fill="white"/>
</svg>
