<svg width="36" height="36" viewBox="0 0 36 36" fill="none" xmlns="http://www.w3.org/2000/svg">
<circle fill="#5865F2" cx="18" cy="18" r="18"/>
<path fill="white" d="M21.531 20.927c-1.05,0 -1.913,-0.951 -1.913,-2.122 0,-1.17 0.836,-2.13 1.913,-2.13 1.076,0 1.93,0.96 1.911,2.13 -0.019,1.171 -0.843,2.122 -1.911,2.122zm-7.062 0c-1.048,0 -1.915,-0.951 -1.915,-2.122 0,-1.17 0.836,-2.13 1.911,-2.13 1.075,0 1.935,0.96 1.916,2.13 -0.018,1.171 -0.844,2.122 -1.912,2.122zm14.071 2.428c0.441,-4.577 -0.756,-8.544 -3.161,-12.062 -1.396,-0.636 -2.874,-1.093 -4.386,-1.348 -0.207,0.371 -0.395,0.752 -0.562,1.143 -0.803,-0.12 -1.618,-0.184 -2.433,-0.184 -0.813,0 -1.63,0.061 -2.434,0.18 -0.164,-0.386 -0.356,-0.77 -0.562,-1.14 -1.512,0.259 -2.99,0.714 -4.387,1.351 -2.776,4.107 -3.529,8.112 -3.153,12.059 1.623,1.201 3.447,2.115 5.38,2.699 0.432,-0.585 0.821,-1.208 1.152,-1.857 -0.627,-0.233 -1.239,-0.527 -1.815,-0.866 0.152,-0.11 0.3,-0.225 0.445,-0.335 1.681,0.79 3.518,1.202 5.376,1.202 1.86,0 3.696,-0.412 5.378,-1.202 0.145,0.119 0.294,0.232 0.444,0.333 -0.577,0.341 -1.189,0.635 -1.818,0.87 0.33,0.648 0.719,1.272 1.153,1.856 1.932,-0.582 3.76,-1.501 5.383,-2.7l0 0.001z"/>
</svg>
