<svg width="34" height="34" viewBox="0 0 34 34" fill="none" xmlns="http://www.w3.org/2000/svg">
<circle fill="#5865F2" cx="17" cy="17" r="17"/>
<path d="M20.335 19.764c-0.992,0 -1.807,-0.898 -1.807,-2.004 0,-1.105 0.79,-2.011 1.807,-2.011 1.016,0 1.822,0.906 1.804,2.011 -0.017,1.106 -0.796,2.004 -1.804,2.004zm-6.67 0c-0.99,0 -1.808,-0.898 -1.808,-2.004 0,-1.105 0.789,-2.011 1.805,-2.011 1.015,0 1.827,0.906 1.809,2.011 -0.017,1.106 -0.797,2.004 -1.806,2.004zm13.289 2.293c0.416,-4.322 -0.714,-8.069 -2.986,-11.391 -1.318,-0.601 -2.714,-1.032 -4.142,-1.273 -0.195,0.35 -0.373,0.71 -0.53,1.079 -0.759,-0.113 -1.529,-0.174 -2.298,-0.174 -0.768,0 -1.54,0.058 -2.299,0.171 -0.155,-0.365 -0.336,-0.728 -0.531,-1.077 -1.428,0.244 -2.824,0.674 -4.143,1.276 -2.622,3.879 -3.333,7.661 -2.978,11.389 1.533,1.134 3.256,1.997 5.081,2.549 0.409,-0.553 0.776,-1.141 1.088,-1.754 -0.592,-0.22 -1.17,-0.497 -1.714,-0.818 0.144,-0.104 0.284,-0.212 0.42,-0.316 1.588,0.746 3.323,1.135 5.078,1.135 1.756,0 3.49,-0.389 5.079,-1.135 0.137,0.112 0.277,0.219 0.419,0.315 -0.545,0.322 -1.123,0.599 -1.717,0.821 0.312,0.612 0.679,1.202 1.089,1.753 1.825,-0.549 3.551,-1.417 5.084,-2.55z" fill="white"/>
</svg>
