<svg width="34" height="34" viewBox="0 0 34 34" fill="none" xmlns="http://www.w3.org/2000/svg">
<path d="M0 8C0 4.22876 0 2.34315 1.17157 1.17157C2.34315 0 4.22876 0 8 0H26C29.7712 0 31.6569 0 32.8284 1.17157C34 2.34315 34 4.22876 34 8V26C34 29.7712 34 31.6569 32.8284 32.8284C31.6569 34 29.7712 34 26 34H8C4.22876 34 2.34315 34 1.17157 32.8284C0 31.6569 0 29.7712 0 26V8Z" fill="#52709C"/>
<path d="M24.163 11.272l0.227 7.678 1.951 0 0.221 -7.678 -2.399 0zm1.202 11.472c0.661,0 1.197,-0.536 1.197,-1.197 0,-0.661 -0.536,-1.197 -1.197,-1.197 0,0 -0.001,0 -0.001,0 -0.661,0 -1.197,0.536 -1.197,1.197 0,0.661 0.536,1.197 1.198,1.197 0,0 0,0 0,0zm2.24 -11.472l0.222 7.678 1.951 0 0.222 -7.678 -2.394 0 -0.001 0zm1.198 11.472c0.662,0 1.197,-0.536 1.197,-1.197 0,-0.661 -0.536,-1.197 -1.197,-1.197 0,0 -0.001,0 -0.001,0 -0.661,0 -1.197,0.536 -1.197,1.197 0,0.661 0.536,1.197 1.197,1.197 0,0 0.001,0 0.001,0l0 0zm-7.572 -5.978l-3.327 0 0 2.194 2.71 0c-0.849,1.183 -2.452,1.784 -4.108,1.103 -0.74,-0.306 -1.332,-0.892 -1.644,-1.63 -1.012,-2.433 0.743,-4.765 3.042,-4.765 0.106,0 0.211,0.004 0.317,0.015 0.021,0 0.042,0.005 0.063,0.005 0.021,0 0.036,0.006 0.058,0.006 0.021,0.005 0.042,0.005 0.063,0.01 0.021,0.005 0.037,0.005 0.058,0.011 0.022,0.005 0.042,0.005 0.064,0.011 0.02,0.004 0.036,0.004 0.052,0.01 0.022,0.005 0.042,0.01 0.063,0.01 0.016,0.007 0.034,0.01 0.053,0.012 0.02,0.005 0.042,0.01 0.058,0.015 0.015,0.006 0.036,0.011 0.052,0.016 0.022,0.006 0.037,0.011 0.058,0.016 0.016,0.005 0.037,0.011 0.053,0.016 0.02,0.005 0.04,0.012 0.058,0.021l0.053 0.016c0.021,0.005 0.036,0.016 0.057,0.021 0.016,0.005 0.037,0.016 0.053,0.021 0.021,0.005 0.037,0.016 0.058,0.021 0.016,0.006 0.037,0.016 0.053,0.021 0.016,0.011 0.036,0.017 0.052,0.027 0.016,0.005 0.032,0.016 0.054,0.021 0.015,0.01 0.036,0.016 0.052,0.026 0.016,0.011 0.032,0.016 0.047,0.027 0.017,0.01 0.035,0.019 0.054,0.026 0.015,0.01 0.031,0.015 0.047,0.026 0.015,0.011 0.036,0.021 0.052,0.032 0.016,0.01 0.032,0.021 0.048,0.026 0.173,0.106 0.333,0.227 0.485,0.365l1.693 -1.695c-0.211,-0.198 -0.438,-0.383 -0.675,-0.549 -0.01,-0.01 -0.027,-0.015 -0.043,-0.026 -0.036,-0.027 -0.075,-0.052 -0.116,-0.074 -0.021,-0.016 -0.042,-0.026 -0.068,-0.042 -0.037,-0.027 -0.079,-0.048 -0.116,-0.074 -0.021,-0.011 -0.042,-0.026 -0.068,-0.036 -0.043,-0.022 -0.08,-0.048 -0.121,-0.07l-0.064 -0.031c-0.042,-0.021 -0.084,-0.048 -0.127,-0.069 -0.021,-0.01 -0.036,-0.021 -0.058,-0.026 -0.047,-0.021 -0.095,-0.042 -0.137,-0.063 -0.121,-0.053 -0.232,-0.101 -0.342,-0.143 -0.016,-0.005 -0.037,-0.016 -0.053,-0.021 -0.037,-0.016 -0.079,-0.026 -0.121,-0.043l-0.095 -0.031 -0.111 -0.032 -0.105 -0.032c-0.036,-0.01 -0.074,-0.021 -0.111,-0.026 -0.036,-0.011 -0.074,-0.021 -0.11,-0.026 -0.037,-0.01 -0.074,-0.016 -0.105,-0.021 -0.037,-0.01 -0.079,-0.016 -0.116,-0.021 -0.036,-0.005 -0.072,-0.012 -0.106,-0.022 -0.043,-0.004 -0.08,-0.015 -0.121,-0.021 -0.038,-0.005 -0.069,-0.01 -0.106,-0.016 -0.042,-0.004 -0.084,-0.01 -0.121,-0.015 -0.037,-0.006 -0.069,-0.006 -0.105,-0.011 -0.043,-0.005 -0.085,-0.005 -0.128,-0.011 -0.02,0 -0.042,-0.005 -0.063,-0.005 -0.121,-0.005 -0.221,-0.01 -0.321,-0.01 -3.849,0 -6.818,3.799 -5.352,7.862 0.553,1.542 1.793,2.739 3.338,3.272 3.301,1.13 6.406,-0.659 7.408,-3.451 0.211,-0.585 0.169,-0.839 0.179,-1.493l0 -0.68 -2.241 0 0 0zm-9.886 0.443l-3.523 0 0 1.741 1.868 0c0,0.053 -0.006,0.1 -0.011,0.153 -0.006,0.06 -0.015,0.121 -0.027,0.179 0,0.011 -0.005,0.027 -0.005,0.037 0,0.006 -0.005,0.016 -0.005,0.022l-0.016 0.062c0,0.011 -0.004,0.02 -0.01,0.027l-0.016 0.058c-0.006,0.011 -0.006,0.021 -0.011,0.027 -0.006,0.015 -0.011,0.036 -0.021,0.052 -0.005,0.011 -0.005,0.016 -0.011,0.027 -0.005,0.015 -0.016,0.036 -0.021,0.052 -0.005,0.011 -0.005,0.016 -0.01,0.027 -0.011,0.02 -0.022,0.042 -0.027,0.058 -0.005,0.005 -0.005,0.01 -0.005,0.016 -0.036,0.078 -0.084,0.153 -0.132,0.226l0 0.006c-0.016,0.021 -0.031,0.047 -0.047,0.068l-0.006 0.006c-0.015,0.022 -0.033,0.044 -0.052,0.063l-0.006 0.005c-0.015,0.021 -0.036,0.042 -0.057,0.064 -0.353,0.382 -0.85,0.601 -1.371,0.601 -1.033,-0.004 -1.868,-0.841 -1.872,-1.873l0 -2.322c0.005,-1.034 0.845,-1.869 1.879,-1.869 0.084,0 0.169,0.005 0.251,0.017 0.011,0 0.021,0.005 0.032,0.005 0.021,0.006 0.036,0.006 0.058,0.011 0.006,0 0.01,0 0.016,0.005 0.326,0.063 0.622,0.216 0.87,0.427 0.031,0.032 0.063,0.058 0.095,0.09l0.031 0.032c0.09,0.095 0.174,0.2 0.243,0.311l0.242 -0.243 0.955 -0.955 0.19 -0.19c-0.054,-0.078 -0.115,-0.152 -0.18,-0.221 -0.021,-0.021 -0.036,-0.043 -0.058,-0.064l-0.032 -0.031 -0.094 -0.095c-0.013,-0.014 -0.027,-0.026 -0.043,-0.037 -0.026,-0.021 -0.047,-0.042 -0.073,-0.069 -0.02,-0.019 -0.041,-0.037 -0.064,-0.053 -0.026,-0.021 -0.053,-0.042 -0.074,-0.063l-0.068 -0.053c-0.025,-0.021 -0.051,-0.04 -0.079,-0.058 -0.022,-0.015 -0.048,-0.032 -0.069,-0.047l-0.005 -0.005c-0.042,-0.031 -0.086,-0.06 -0.132,-0.085l-0.005 -0.005c-0.026,-0.016 -0.058,-0.037 -0.085,-0.053 -0.026,-0.015 -0.052,-0.026 -0.078,-0.042 -0.027,-0.016 -0.058,-0.032 -0.085,-0.048 -0.026,-0.015 -0.052,-0.026 -0.079,-0.042 -0.032,-0.016 -0.058,-0.026 -0.089,-0.042 -0.027,-0.011 -0.053,-0.026 -0.079,-0.037 -0.032,-0.011 -0.058,-0.026 -0.09,-0.037 -0.028,-0.011 -0.057,-0.022 -0.085,-0.032l-0.095 -0.031c-0.027,-0.011 -0.056,-0.02 -0.084,-0.027 -0.032,-0.01 -0.063,-0.021 -0.1,-0.031 -0.026,-0.011 -0.058,-0.016 -0.085,-0.021 -0.031,-0.011 -0.068,-0.016 -0.099,-0.027 -0.027,-0.005 -0.059,-0.01 -0.085,-0.021 -0.037,-0.005 -0.074,-0.016 -0.105,-0.021l-0.08 -0.016 -0.116 -0.016c-0.026,-0.005 -0.052,-0.005 -0.078,-0.01 -0.043,-0.006 -0.085,-0.006 -0.133,-0.011 -0.021,0 -0.042,-0.005 -0.062,-0.005 -0.09,0 -0.153,-0.006 -0.222,-0.006 -2.105,0.001 -3.823,1.727 -3.823,3.827l0 2.321c0,2.106 1.719,3.826 3.823,3.826l0.3 0c1.941,0 3.522,-1.588 3.522,-3.525l0 -2.01 -0.3 0z" fill="white"/>
</svg>
