<svg width="36" height="36" viewBox="0 0 36 36" fill="none" xmlns="http://www.w3.org/2000/svg">
<defs>
<linearGradient id="id0" gradientUnits="userSpaceOnUse" x1="-80.82" y1="-60.072" x2="-80.82" y2="-60.072">
<stop offset="0" style="stop-opacity:1; stop-color:#2AABEE"/>
<stop offset="1" style="stop-opacity:1; stop-color:#229ED9"/>
</linearGradient>
</defs>
<circle fill="url(#id0)" cx="18" cy="18" r="18"/>
<path fill="white" d="M8.138 17.805c5.245,-2.277 8.738,-3.792 10.49,-4.525 4.991,-2.084 6.04,-2.444 6.715,-2.459 0.149,0 0.481,0.031 0.705,0.21 0.181,0.15 0.225,0.345 0.254,0.494 0.03,0.151 0.061,0.465 0.03,0.705 -0.27,2.849 -1.438,9.757 -2.038,12.935 -0.254,1.348 -0.749,1.799 -1.228,1.844 -1.05,0.09 -1.844,-0.69 -2.849,-1.349 -1.589,-1.035 -2.472,-1.679 -4.017,-2.697 -1.783,-1.171 -0.63,-1.815 0.39,-2.865 0.271,-0.269 4.872,-4.466 4.961,-4.84 0.016,-0.045 0.016,-0.225 -0.089,-0.315 -0.105,-0.09 -0.256,-0.06 -0.376,-0.03 -0.164,0.03 -2.68,1.709 -7.582,5.021 -0.72,0.494 -1.365,0.734 -1.948,0.72 -0.645,-0.015 -1.876,-0.359 -2.803,-0.66 -1.126,-0.359 -2.024,-0.554 -1.95,-1.185 0.046,-0.328 0.496,-0.659 1.334,-1.004l0.002 0 -0.001 0z"/>
</svg>
