<svg width="34" height="34" viewBox="0 0 34 34" fill="none" xmlns="http://www.w3.org/2000/svg">
<defs>
<linearGradient id="id0" gradientUnits="userSpaceOnUse" x1="-80.82" y1="-60.072" x2="-80.82" y2="-60.072">
<stop offset="0" style="stop-opacity:1; stop-color:#2AABEE"/>
<stop offset="1" style="stop-opacity:1; stop-color:#229ED9"/>
</linearGradient>
</defs>
<path fill="white" d="M0 8c0,-3.771 0,-5.657 1.172,-6.828 1.171,-1.172 3.057,-1.172 6.828,-1.172l18 0c3.771,0 5.657,0 6.828,1.172 1.172,1.171 1.172,3.057 1.172,6.828l0 18c0,3.771 0,5.657 -1.172,6.828 -1.171,1.172 -3.057,1.172 -6.828,1.172l-18 0c-3.771,0 -5.657,0 -6.828,-1.172 -1.172,-1.171 -1.172,-3.057 -1.172,-6.828l0 -18z"/>
<circle fill="url(#id0)" cx="17" cy="17" r="14"/>
<path fill="white" d="M9.33 16.848c4.08,-1.771 6.796,-2.949 8.159,-3.52 3.882,-1.62 4.698,-1.9 5.223,-1.912 0.116,0 0.373,0.024 0.548,0.163 0.14,0.117 0.175,0.269 0.198,0.385 0.023,0.117 0.047,0.361 0.023,0.548 -0.21,2.215 -1.119,7.589 -1.585,10.06 -0.198,1.049 -0.583,1.399 -0.956,1.434 -0.816,0.07 -1.434,-0.537 -2.215,-1.049 -1.236,-0.805 -1.923,-1.306 -3.124,-2.098 -1.387,-0.91 -0.49,-1.411 0.303,-2.227 0.21,-0.21 3.789,-3.474 3.858,-3.765 0.012,-0.035 0.012,-0.175 -0.069,-0.245 -0.082,-0.07 -0.199,-0.047 -0.292,-0.023 -0.128,0.023 -2.086,1.329 -5.898,3.905 -0.56,0.384 -1.061,0.571 -1.515,0.559 -0.502,-0.011 -1.458,-0.279 -2.18,-0.513 -0.875,-0.279 -1.574,-0.431 -1.516,-0.921 0.035,-0.256 0.385,-0.513 1.038,-0.781z"/>
</svg>
