<svg width="34" height="34" viewBox="0 0 34 34" fill="none" xmlns="http://www.w3.org/2000/svg">
<defs>
<linearGradient id="id0" gradientUnits="userSpaceOnUse" x1="-80.82" y1="-60.072" x2="-80.82" y2="-60.072">
<stop offset="0" style="stop-opacity:1; stop-color:#2AABEE"/>
<stop offset="1" style="stop-opacity:1; stop-color:#229ED9"/>
</linearGradient>
</defs>
<circle fill="url(#id0)" cx="17" cy="17" r="17"/>
<path fill="white" d="M7.686 16.816c4.954,-2.151 8.252,-3.582 9.907,-4.274 4.714,-1.968 5.705,-2.308 6.342,-2.322 0.141,0 0.454,0.029 0.666,0.198 0.17,0.142 0.212,0.326 0.24,0.467 0.028,0.143 0.057,0.439 0.028,0.666 -0.255,2.69 -1.358,9.215 -1.925,12.216 -0.24,1.273 -0.707,1.698 -1.16,1.741 -0.991,0.085 -1.741,-0.652 -2.69,-1.274 -1.501,-0.977 -2.335,-1.585 -3.794,-2.547 -1.684,-1.106 -0.595,-1.714 0.368,-2.705 0.256,-0.255 4.601,-4.218 4.685,-4.572 0.015,-0.042 0.015,-0.212 -0.084,-0.297 -0.099,-0.085 -0.242,-0.057 -0.355,-0.028 -0.155,0.028 -2.532,1.614 -7.161,4.742 -0.68,0.466 -1.289,0.693 -1.84,0.679 -0.609,-0.014 -1.771,-0.339 -2.647,-0.623 -1.063,-0.339 -1.911,-0.523 -1.841,-1.119 0.043,-0.31 0.468,-0.622 1.26,-0.948l0.001 0z"/>
</svg>
