<svg width="34" height="34" viewBox="0 0 34 34" fill="none" xmlns="http://www.w3.org/2000/svg">
<path fill="white" d="M0 8c0,-3.771 0,-5.657 1.172,-6.828 1.171,-1.172 3.057,-1.172 6.828,-1.172l18 0c3.771,0 5.657,0 6.828,1.172 1.172,1.171 1.172,3.057 1.172,6.828l0 18c0,3.771 0,5.657 -1.172,6.828 -1.171,1.172 -3.057,1.172 -6.828,1.172l-18 0c-3.771,0 -5.657,0 -6.828,-1.172 -1.172,-1.171 -1.172,-3.057 -1.172,-6.828l0 -18z"/>
<path fill="#00F2EA" d="M22.121 13.663c1.55,1.108 3.448,1.759 5.498,1.759l0 -3.944c-0.388,0 -0.775,-0.04 -1.154,-0.12l-1.166 1.773c-2.05,0 -2.483,-0.086 -4.333,-0.428l-1.065 8.015c0,4.026 -2.067,6.357 -6.094,6.357 -1.503,0 -2.634,0.163 -4.193,-0.268 1.324,1.354 3.171,2.193 5.214,2.193 4.028,0 7.293,-3.263 7.293,-7.289l0 -8.048 0 0zm1.424 -3.978c-0.791,-0.865 -1.311,-1.982 -1.424,-3.218l0 -0.507 -1.094 0c-0.63,2.385 0.344,3.696 2.518,3.725l0 0zm-11.384 14.033c-0.443,-0.58 -0.681,-1.289 -0.68,-2.019 0,-1.841 1.493,-3.334 3.336,-3.334 0.343,0 0.684,0.053 1.012,0.156l0 -4.031c-0.383,-0.053 -0.769,-0.075 -1.155,-0.067l-0.632 2.406c-0.328,-0.104 -0.669,-0.157 -1.012,-0.156 -1.843,0 -3.303,2.225 -3.303,4.066 0,1.303 1.013,2.996 2.434,2.979z"/>
<path fill="#FF004F" d="M26.465 11.358l0 -0.84c-1.032,0.002 -2.044,-0.287 -2.92,-0.833 0.349,1.447 1.336,2.078 2.92,1.673zm-5.438 -5.398c-0.026,-0.15 -0.047,-0.301 -0.061,-0.453l0 -0.507 -3.968 0 0 15.751c-0.007,1.836 -1.497,3.322 -3.336,3.322 -0.54,0 -1.05,-0.127 -1.501,-0.355 0.21,1.132 1.272,1.815 2.356,1.815 1.838,0 4.195,-1.62 4.201,-3.456l0.733 -14.486 1.576 -1.631zm-6.353 8.463l0 -0.893c-0.331,-0.045 -0.666,-0.068 -1,-0.068 -4.028,0 -7.293,3.263 -7.293,7.289 0,2.523 1.283,4.748 3.233,6.056 -0.653,-2.08 -0.814,-3.113 -0.814,-5.096 0,-3.974 2.017,-6.374 5.874,-7.288z"/>
<path fill="black" d="M20.966 12.703c1.55,1.107 3.448,1.759 5.499,1.759l0 -3.104c-1.145,-0.244 -2.158,-0.841 -2.92,-1.673 -1.304,-0.813 -2.243,-2.155 -2.518,-3.725l-2.875 0 0 15.751c-0.006,1.836 -1.497,3.323 -3.335,3.323 -1.084,0 -2.047,-0.516 -2.656,-1.316 -1.089,-0.549 -1.835,-1.677 -1.835,-2.979 0,-1.841 1.493,-3.334 3.336,-3.334 0.353,0 0.693,0.055 1.012,0.156l0 -3.138c-3.957,0.082 -7.139,3.314 -7.139,7.288 0,1.984 0.792,3.782 2.079,5.096 1.16,0.779 2.557,1.233 4.06,1.233 4.027,0 7.292,-3.264 7.292,-7.289l0 -8.048 0 0z"/>
</svg>
