<svg width="34" height="34" viewBox="0 0 34 34" fill="none" xmlns="http://www.w3.org/2000/svg">
<path d="M0 8C0 4.22876 0 2.34315 1.17157 1.17157C2.34315 0 4.22876 0 8 0H26C29.7712 0 31.6569 0 32.8284 1.17157C34 2.34315 34 4.22876 34 8V26C34 29.7712 34 31.6569 32.8284 32.8284C31.6569 34 29.7712 34 26 34H8C4.22876 34 2.34315 34 1.17157 32.8284C0 31.6569 0 29.7712 0 26V8Z" fill="#9146FF"/>
<path d="M11 5l-4.286 4.286 0 15.428 5.143 0 0 4.286 4.286 -4.286 3.429 0 7.714 -7.714 0 -12 -16.286 0zm14.572 11.143l-3.429 3.429 -3.429 0 -3 2.999 0 -2.999 -3.857 0 0 -12.858 13.715 0 0 9.429zm-4.286 -1.286l0 -5.143 1.714 0 0 5.143 -1.714 0zm-4.715 0l0 -5.143 1.715 0 0 5.143 -1.715 0z" fill="white"/>
</svg>
