<svg width="34" height="34" viewBox="0 0 34 34" fill="none" xmlns="http://www.w3.org/2000/svg">
<path d="M0 16.32c0,-7.693 0,-11.54 2.39,-13.93 2.39,-2.39 6.237,-2.39 13.93,-2.39l1.36 0c7.693,0 11.54,0 13.93,2.39 2.39,2.39 2.39,6.237 2.39,13.93l0 1.36c0,7.693 0,11.54 -2.39,13.93 -2.39,2.39 -6.237,2.39 -13.93,2.39l-1.36 0c-7.693,0 -11.54,0 -13.93,-2.39 -2.39,-2.39 -2.39,-6.237 -2.39,-13.93l0 -1.36z" fill="#0077FF"/>
<path d="M18.091 24.494c-7.749,0 -12.169,-5.312 -12.354,-14.152l3.882 0c0.128,6.488 2.989,9.236 5.256,9.803l0 -9.803 3.655 0 0 5.596c2.239,-0.241 4.59,-2.791 5.383,-5.596l3.655 0c-0.609,3.456 -3.159,6.006 -4.972,7.055 1.813,0.85 4.718,3.074 5.822,7.097l-4.023 0c-0.864,-2.691 -3.018,-4.774 -5.865,-5.057l0 5.057 -0.439 0z" fill="white"/>
</svg>
