<svg width="34" height="34" viewBox="0 0 34 34" fill="none" xmlns="http://www.w3.org/2000/svg">
<path d="M0 16.32c0,-7.694 0,-11.54 2.39,-13.93 2.39,-2.39 6.236,-2.39 13.93,-2.39l1.36 0c7.694,0 11.54,0 13.93,2.39 2.39,2.39 2.39,6.236 2.39,13.93l0 1.36c0,7.694 0,11.54 -2.39,13.93 -2.39,2.39 -6.236,2.39 -13.93,2.39l-1.36 0c-7.694,0 -11.54,0 -13.93,-2.39 -2.39,-2.39 -2.39,-6.236 -2.39,-13.93l0 -1.36z" fill="#0077FF"/>
<path d="M19.832 0c-6.279,0.02 -9.622,0.231 -11.777,2.387 -2.391,2.39 -2.391,6.236 -2.391,13.93l0 1.36c0,7.694 0,11.539 2.391,13.929 2.155,2.156 5.498,2.367 11.777,2.387 6.28,-0.02 9.622,-0.231 11.778,-2.387 2.39,-2.39 2.39,-6.235 2.39,-13.929l0 -1.36c0,-7.694 0,-11.54 -2.39,-13.93 -2.156,-2.152 -5.498,-2.363 -11.778,-2.387z" fill="#FF2B42"/>
<path d="M23.99 13.978c1.721,0.992 2.578,1.489 2.867,2.135 0.251,0.564 0.251,1.21 0,1.774 -0.289,0.65 -1.15,1.143 -2.867,2.135l-4.709 2.721c-1.72,0.993 -2.577,1.489 -3.284,1.414 -0.615,-0.065 -1.173,-0.387 -1.537,-0.887 -0.418,-0.575 -0.418,-1.568 -0.418,-3.55l0 -5.44c0,-1.986 0,-2.978 0.418,-3.55 0.364,-0.5 0.922,-0.822 1.537,-0.887 0.704,-0.075 1.564,0.421 3.284,1.414l4.709 2.721z" fill="white"/>
</svg>
