<svg width="36" height="36" viewBox="0 0 36 36" fill="none" xmlns="http://www.w3.org/2000/svg">
<path fill="#0077FF" d="M0 17.28c0,-8.147 0,-12.219 2.53,-14.75 2.531,-2.53 6.603,-2.53 14.75,-2.53l1.44 0c0.798,0 1.556,0 2.278,0.002l0 35.995c-0.722,0.003 -1.48,0.003 -2.278,0.003l-1.44 0c-8.147,0 -12.219,0 -14.75,-2.531 -2.53,-2.531 -2.53,-6.603 -2.53,-14.749l0 -1.44z"/>
<path fill="#FF2B42" d="M20.998 0c-6.648,0.021 -10.188,0.244 -12.47,2.527 -2.531,2.531 -2.531,6.603 -2.531,14.75l0 1.44c0,8.146 0,12.217 2.531,14.748 2.282,2.283 5.822,2.507 12.47,2.528 6.65,-0.021 10.189,-0.245 12.472,-2.528 2.53,-2.531 2.53,-6.602 2.53,-14.748l0 -1.44c0,-8.147 0,-12.22 -2.53,-14.75 -2.283,-2.278 -5.822,-2.502 -12.472,-2.527z"/>
<path fill="white" d="M16.486 23.146l-5.033 0 0 -10.592 1.577 0 0 9.09 3.455 0 0 1.502 0.001 0zm2.503 0l-1.578 0 0 -10.592 1.578 0 0 10.592zm5.54 0l-2.419 0 -2.269 -10.592 1.623 0 1.758 8.669 0.224 0 1.848 -8.669 1.608 0 -2.373 10.592zm8.333 0l-5.198 0 0 -10.592 5.093 0 0 1.503 -3.515 0 0 3.003 3.11 0 0 1.473 -3.11 0 0 3.11 3.62 0 0 1.503 0 0z"/>
</svg>
