<svg width="34" height="34" viewBox="0 0 34 34" fill="none" xmlns="http://www.w3.org/2000/svg">
<path d="M0 16.32c0,-7.694 0,-11.54 2.39,-13.93 2.39,-2.39 6.236,-2.39 13.93,-2.39l1.36 0c7.694,0 11.54,0 13.93,2.39 2.39,2.39 2.39,6.236 2.39,13.93l0 1.36c0,7.694 0,11.54 -2.39,13.93 -2.39,2.39 -6.236,2.39 -13.93,2.39l-1.36 0c-7.694,0 -11.54,0 -13.93,-2.39 -2.39,-2.39 -2.39,-6.236 -2.39,-13.93l0 -1.36z" fill="#0077FF"/>
<path d="M19.832 0c-6.279,0.02 -9.622,0.231 -11.777,2.387 -2.391,2.39 -2.391,6.236 -2.391,13.93l0 1.36c0,7.694 0,11.539 2.391,13.929 2.155,2.156 5.498,2.367 11.777,2.387 6.28,-0.02 9.622,-0.231 11.778,-2.387 2.39,-2.39 2.39,-6.235 2.39,-13.929l0 -1.36c0,-7.694 0,-11.54 -2.39,-13.93 -2.156,-2.152 -5.498,-2.363 -11.778,-2.387z" fill="#FF2B42"/>
<path d="M15.57 21.86l-4.753 0 0 -10.003 1.49 0 0 8.584 3.263 0 0 1.419zm2.364 0l-1.49 0 0 -10.003 1.49 0 0 10.003zm5.232 0l-2.284 0 -2.143 -10.003 1.533 0 1.66 8.187 0.212 0 1.745 -8.187 1.519 0 -2.242 10.003zm7.87 0l-4.909 0 0 -10.003 4.81 0 0 1.419 -3.32 0 0 2.837 2.937 0 0 1.391 -2.937 0 0 2.937 3.419 0 0 1.419z" fill="white"/>
</svg>
