<svg width="36" height="36" viewBox="0 0 36 36" fill="none" xmlns="http://www.w3.org/2000/svg">
<path fill="#0077FF" d="M0 17.28c0,-8.147 0,-12.219 2.53,-14.75 2.531,-2.53 6.603,-2.53 14.75,-2.53l1.44 0c0.798,0 1.556,0 2.278,0.002l0 35.995c-0.722,0.003 -1.48,0.003 -2.278,0.003l-1.44 0c-8.147,0 -12.219,0 -14.75,-2.531 -2.53,-2.531 -2.53,-6.603 -2.53,-14.749l0 -1.44z"/>
<path fill="#FF2B42" d="M20.998 0c-6.648,0.021 -10.188,0.244 -12.47,2.527 -2.531,2.531 -2.531,6.603 -2.531,14.75l0 1.44c0,8.146 0,12.217 2.531,14.748 2.282,2.283 5.822,2.507 12.47,2.528 6.65,-0.021 10.189,-0.245 12.472,-2.528 2.53,-2.531 2.53,-6.602 2.53,-14.748l0 -1.44c0,-8.147 0,-12.22 -2.53,-14.75 -2.283,-2.278 -5.822,-2.502 -12.472,-2.527z"/>
<path fill="white" d="M25.401 14.8c1.822,1.051 2.729,1.577 3.036,2.26 0.265,0.598 0.265,1.282 0,1.879 -0.307,0.688 -1.218,1.21 -3.036,2.261l-4.986 2.881c-1.821,1.051 -2.729,1.576 -3.477,1.497 -0.651,-0.069 -1.242,-0.41 -1.628,-0.939 -0.443,-0.609 -0.443,-1.661 -0.443,-3.759l0 -5.76c0,-2.103 0,-3.153 0.443,-3.759 0.386,-0.53 0.976,-0.871 1.628,-0.939 0.745,-0.08 1.656,0.445 3.477,1.497l4.986 2.88 0 0.001z"/>
</svg>
