<svg width="34" height="34" viewBox="0 0 34 34" fill="none" xmlns="http://www.w3.org/2000/svg">
<path d="M0 7.99988C0 4.22864 0 2.34302 1.17157 1.17145C2.34315 -0.00012207 4.22876 -0.00012207 8 -0.00012207H26C29.7712 -0.00012207 31.6569 -0.00012207 32.8284 1.17145C34 2.34302 34 4.22864 34 7.99988V25.9999C34 29.7711 34 31.6567 32.8284 32.8283C31.6569 33.9999 29.7712 33.9999 26 33.9999H8C4.22876 33.9999 2.34315 33.9999 1.17157 32.8283C0 31.6567 0 29.7711 0 25.9999V7.99988Z" fill="white"/>
<path d="M14.8789 13.6817L21.6077 17.2642L14.8789 20.8717V13.6817Z" fill="white"/>
<path d="M29.6527 22.1168C29.6527 22.1168 29.4089 23.8805 28.6629 24.6571C27.717 25.6767 26.654 25.6817 26.1689 25.7418C22.6826 25.9999 17.4556 25.9999 17.4556 25.9999H17.4458C17.4458 25.9999 12.2188 25.9999 8.73253 25.7418C8.24737 25.6817 7.18442 25.6767 6.23849 24.6571C5.49247 23.8805 5.24867 22.1168 5.24867 22.1168C5.24867 22.1168 5 20.0475 5 17.9757V16.0341C5 13.9623 5.24867 11.893 5.24867 11.893C5.24867 11.893 5.49247 10.1293 6.23849 9.35271C7.18686 8.33309 8.43022 8.36565 8.98364 8.25793C10.9755 8.06252 17.4507 7.99989 17.4507 7.99989C17.4507 7.99989 22.6826 8.00741 26.1689 8.26795C26.6565 8.32808 27.717 8.33309 28.6629 9.35271C29.4089 10.1293 29.6527 11.893 29.6527 11.893C29.6527 11.893 29.9014 13.9648 29.9014 16.0341V17.9757C29.9014 20.0475 29.6527 22.1168 29.6527 22.1168ZM14.8787 13.6817V20.8717L21.6075 17.2642L14.8787 13.6817Z" fill="#FF0033"/>
</svg>
