<svg width="34" height="34" viewBox="0 0 34 34" fill="none" xmlns="http://www.w3.org/2000/svg">
<path d="M13.61 22.104l8.817 -5.116 -8.817 -5.092 0 10.208zm-9.885 6.085c-1.465,-0.398 -2.607,-1.565 -3.03,-3.006 -0.695,-2.657 -0.695,-8.195 -0.695,-8.195 0,0 0,-5.539 0.695,-8.171 0.423,-1.466 1.565,-2.608 3.03,-3.006 2.633,-0.72 13.263,-0.72 13.263,-0.72 0,0 10.654,0 13.287,0.72 1.49,0.398 2.607,1.54 3.005,3.006 0.72,2.632 0.72,8.171 0.72,8.171 0,0 0,5.538 -0.72,8.195 -0.398,1.441 -1.515,2.608 -3.005,3.006 -2.633,0.72 -13.287,0.72 -13.287,0.72 0,0 -10.63,0 -13.263,-0.72z" fill="#FF0033"/>
<polygon points="13.61,22.104 22.427,16.988 13.61,11.896 " fill="white"/>
</svg>
