<svg width="34" height="34" viewBox="0 0 36 36" fill="none" xmlns="http://www.w3.org/2000/svg">
<path d="M0 8.47c0,-3.993 0,-5.989 1.24,-7.23 1.241,-1.24 3.237,-1.24 7.23,-1.24l19.06 0c3.993,0 5.989,0 7.23,1.24 1.24,1.241 1.24,3.237 1.24,7.23l0 19.06c0,3.993 0,5.989 -1.24,7.23 -1.241,1.24 -3.237,1.24 -7.23,1.24l-19.06 0c-3.993,0 -5.989,0 -7.23,-1.24 -1.24,-1.241 -1.24,-3.237 -1.24,-7.23l0 -19.06z" fill="white"/>
<path d="M7.849 26.556c-1.121,-0.304 -1.995,-1.196 -2.318,-2.298 -0.531,-2.032 -0.531,-6.267 -0.531,-6.267 0,0 0,-4.236 0.531,-6.249 0.323,-1.121 1.197,-1.994 2.318,-2.298 2.013,-0.551 10.142,-0.551 10.142,-0.551 0,0 8.147,0 10.161,0.551 1.139,0.304 1.994,1.177 2.298,2.298 0.55,2.013 0.55,6.249 0.55,6.249 0,0 0,4.235 -0.55,6.267 -0.304,1.102 -1.159,1.994 -2.298,2.298 -2.014,0.551 -10.161,0.551 -10.161,0.551 0,0 -8.129,0 -10.142,-0.551z" fill="#FF0033"/>
<polygon points="15.408,21.903 22.15,17.991 15.408,14.097 " fill="white"/>
</svg>
